_states
version=1
nRows=4
nColumns=205
inDegrees=yes

# SIMM Motion File Header:
name _states
datacolumns 205
datarows 4
otherdata 1
range 0.00000000 0.00021153
endheader
time	/jointset/ground_pelvis/pelvis_tilt/value	/jointset/ground_pelvis/pelvis_tilt/speed	/jointset/ground_pelvis/pelvis_list/value	/jointset/ground_pelvis/pelvis_list/speed	/jointset/ground_pelvis/pelvis_rotation/value	/jointset/ground_pelvis/pelvis_rotation/speed	/jointset/ground_pelvis/pelvis_tx/value	/jointset/ground_pelvis/pelvis_tx/speed	/jointset/ground_pelvis/pelvis_ty/value	/jointset/ground_pelvis/pelvis_ty/speed	/jointset/ground_pelvis/pelvis_tz/value	/jointset/ground_pelvis/pelvis_tz/speed	/jointset/hip_r/hip_flexion_r/value	/jointset/hip_r/hip_flexion_r/speed	/jointset/hip_r/hip_adduction_r/value	/jointset/hip_r/hip_adduction_r/speed	/jointset/hip_r/hip_rotation_r/value	/jointset/hip_r/hip_rotation_r/speed	/jointset/walker_knee_r/knee_angle_r/value	/jointset/walker_knee_r/knee_angle_r/speed	/jointset/patellofemoral_r/knee_angle_r_beta/value	/jointset/patellofemoral_r/knee_angle_r_beta/speed	/jointset/ankle_r/ankle_angle_r/value	/jointset/ankle_r/ankle_angle_r/speed	/jointset/subtalar_r/subtalar_angle_r/value	/jointset/subtalar_r/subtalar_angle_r/speed	/jointset/mtp_r/mtp_angle_r/value	/jointset/mtp_r/mtp_angle_r/speed	/jointset/hip_l/hip_flexion_l/value	/jointset/hip_l/hip_flexion_l/speed	/jointset/hip_l/hip_adduction_l/value	/jointset/hip_l/hip_adduction_l/speed	/jointset/hip_l/hip_rotation_l/value	/jointset/hip_l/hip_rotation_l/speed	/jointset/walker_knee_l/knee_angle_l/value	/jointset/walker_knee_l/knee_angle_l/speed	/jointset/patellofemoral_l/knee_angle_l_beta/value	/jointset/patellofemoral_l/knee_angle_l_beta/speed	/jointset/ankle_l/ankle_angle_l/value	/jointset/ankle_l/ankle_angle_l/speed	/jointset/subtalar_l/subtalar_angle_l/value	/jointset/subtalar_l/subtalar_angle_l/speed	/jointset/mtp_l/mtp_angle_l/value	/jointset/mtp_l/mtp_angle_l/speed	/jointset/back/lumbar_extension/value	/jointset/back/lumbar_extension/speed	/jointset/back/lumbar_bending/value	/jointset/back/lumbar_bending/speed	/jointset/back/lumbar_rotation/value	/jointset/back/lumbar_rotation/speed	/jointset/acromial_r/arm_flex_r/value	/jointset/acromial_r/arm_flex_r/speed	/jointset/acromial_r/arm_add_r/value	/jointset/acromial_r/arm_add_r/speed	/jointset/acromial_r/arm_rot_r/value	/jointset/acromial_r/arm_rot_r/speed	/jointset/elbow_r/elbow_flex_r/value	/jointset/elbow_r/elbow_flex_r/speed	/jointset/radioulnar_r/pro_sup_r/value	/jointset/radioulnar_r/pro_sup_r/speed	/jointset/radius_hand_r/wrist_flex_r/value	/jointset/radius_hand_r/wrist_flex_r/speed	/jointset/radius_hand_r/wrist_dev_r/value	/jointset/radius_hand_r/wrist_dev_r/speed	/jointset/acromial_l/arm_flex_l/value	/jointset/acromial_l/arm_flex_l/speed	/jointset/acromial_l/arm_add_l/value	/jointset/acromial_l/arm_add_l/speed	/jointset/acromial_l/arm_rot_l/value	/jointset/acromial_l/arm_rot_l/speed	/jointset/elbow_l/elbow_flex_l/value	/jointset/elbow_l/elbow_flex_l/speed	/jointset/radioulnar_l/pro_sup_l/value	/jointset/radioulnar_l/pro_sup_l/speed	/jointset/radius_hand_l/wrist_flex_l/value	/jointset/radius_hand_l/wrist_flex_l/speed	/jointset/radius_hand_l/wrist_dev_l/value	/jointset/radius_hand_l/wrist_dev_l/speed	/forceset/addbrev_r/activation	/forceset/addlong_r/activation	/forceset/addlong_r/fiber_length	/forceset/addmagDist_r/activation	/forceset/addmagIsch_r/activation	/forceset/addmagIsch_r/fiber_length	/forceset/addmagMid_r/activation	/forceset/addmagProx_r/activation	/forceset/bflh_r/activation	/forceset/bflh_r/fiber_length	/forceset/bfsh_r/activation	/forceset/edl_r/activation	/forceset/edl_r/fiber_length	/forceset/ehl_r/activation	/forceset/ehl_r/fiber_length	/forceset/fdl_r/activation	/forceset/fdl_r/fiber_length	/forceset/fhl_r/activation	/forceset/fhl_r/fiber_length	/forceset/gaslat_r/activation	/forceset/gaslat_r/fiber_length	/forceset/gasmed_r/activation	/forceset/gasmed_r/fiber_length	/forceset/glmax1_r/activation	/forceset/glmax2_r/activation	/forceset/glmax3_r/activation	/forceset/glmed1_r/activation	/forceset/glmed2_r/activation	/forceset/glmed3_r/activation	/forceset/glmin1_r/activation	/forceset/glmin2_r/activation	/forceset/glmin3_r/activation	/forceset/glmin3_r/fiber_length	/forceset/grac_r/activation	/forceset/iliacus_r/activation	/forceset/perbrev_r/activation	/forceset/perbrev_r/fiber_length	/forceset/perlong_r/activation	/forceset/perlong_r/fiber_length	/forceset/piri_r/activation	/forceset/piri_r/fiber_length	/forceset/psoas_r/activation	/forceset/recfem_r/activation	/forceset/recfem_r/fiber_length	/forceset/sart_r/activation	/forceset/semimem_r/activation	/forceset/semimem_r/fiber_length	/forceset/semiten_r/activation	/forceset/semiten_r/fiber_length	/forceset/soleus_r/activation	/forceset/soleus_r/fiber_length	/forceset/tfl_r/activation	/forceset/tfl_r/fiber_length	/forceset/tibant_r/activation	/forceset/tibant_r/fiber_length	/forceset/tibpost_r/activation	/forceset/tibpost_r/fiber_length	/forceset/vasint_r/activation	/forceset/vasint_r/fiber_length	/forceset/vaslat_r/activation	/forceset/vaslat_r/fiber_length	/forceset/vasmed_r/activation	/forceset/vasmed_r/fiber_length	/forceset/addbrev_l/activation	/forceset/addlong_l/activation	/forceset/addlong_l/fiber_length	/forceset/addmagDist_l/activation	/forceset/addmagIsch_l/activation	/forceset/addmagIsch_l/fiber_length	/forceset/addmagMid_l/activation	/forceset/addmagProx_l/activation	/forceset/bflh_l/activation	/forceset/bflh_l/fiber_length	/forceset/bfsh_l/activation	/forceset/edl_l/activation	/forceset/edl_l/fiber_length	/forceset/ehl_l/activation	/forceset/ehl_l/fiber_length	/forceset/fdl_l/activation	/forceset/fdl_l/fiber_length	/forceset/fhl_l/activation	/forceset/fhl_l/fiber_length	/forceset/gaslat_l/activation	/forceset/gaslat_l/fiber_length	/forceset/gasmed_l/activation	/forceset/gasmed_l/fiber_length	/forceset/glmax1_l/activation	/forceset/glmax2_l/activation	/forceset/glmax3_l/activation	/forceset/glmed1_l/activation	/forceset/glmed2_l/activation	/forceset/glmed3_l/activation	/forceset/glmin1_l/activation	/forceset/glmin2_l/activation	/forceset/glmin3_l/activation	/forceset/glmin3_l/fiber_length	/forceset/grac_l/activation	/forceset/iliacus_l/activation	/forceset/perbrev_l/activation	/forceset/perbrev_l/fiber_length	/forceset/perlong_l/activation	/forceset/perlong_l/fiber_length	/forceset/piri_l/activation	/forceset/piri_l/fiber_length	/forceset/psoas_l/activation	/forceset/recfem_l/activation	/forceset/recfem_l/fiber_length	/forceset/sart_l/activation	/forceset/semimem_l/activation	/forceset/semimem_l/fiber_length	/forceset/semiten_l/activation	/forceset/semiten_l/fiber_length	/forceset/soleus_l/activation	/forceset/soleus_l/fiber_length	/forceset/tfl_l/activation	/forceset/tfl_l/fiber_length	/forceset/tibant_l/activation	/forceset/tibant_l/fiber_length	/forceset/tibpost_l/activation	/forceset/tibpost_l/fiber_length	/forceset/vasint_l/activation	/forceset/vasint_l/fiber_length	/forceset/vaslat_l/activation	/forceset/vaslat_l/fiber_length	/forceset/vasmed_l/activation	/forceset/vasmed_l/fiber_length
      0.00000000	      3.77028231	      0.00000000	     -9.06686345	     -0.00000000	      3.70908125	      0.00000000	      0.04484839	      0.00000000	      1.01158335	     -0.00000000	     -0.22340009	      0.00000000	     17.58066779	    -22.16087302	     -0.44018901	      1.59586083	     -1.68897120	      9.50553597	     12.74701694	    -35.65196771	      0.22247742	     -0.62224422	     -0.05733748	     62.16669284	     -0.00000000	      0.00000000	      0.00000000	     -0.00000000	     -4.95635766	      0.00000000	    -16.61136772	     -0.00000000	     -8.43483485	     -0.00000000	     50.95238787	      0.00000000	      0.88928693	     -0.00000000	    -18.90207533	      0.00000000	      0.00000000	      0.00000000	      0.00000000	     -0.00000000	     -9.37291115	      0.00000000	     10.92884679	      0.00000000	     -3.91548356	     -0.00000000	    -10.14984650	     -0.00000000	    -11.05969488	      0.00000000	    -13.98141467	      0.00000000	     29.92648919	      0.00000000	     30.75836834	      0.00000000	     -0.00000000	      0.00000000	      0.00000000	      0.00000000	     -0.13766342	      0.00000000	     -9.87893544	     -0.00000000	    -12.94888169	      0.00000000	     30.67721746	      0.00000000	     30.30944903	     -0.00000000	     -0.00000000	     -0.00000000	     -0.00000000	     -0.00000000	      0.02000000	      0.02000000	      0.09920279	      0.02000000	      0.02000000	      0.14221767	      0.02000000	      0.02000000	      0.02000000	      0.09812306	      0.02000000	      0.05645188	      0.07467145	      0.02439638	      0.08509324	      0.02000000	      0.04900891	      0.02000000	      0.05523933	      0.02000000	      0.07679867	      0.02000000	      0.06379549	      0.03102651	      0.03054236	      0.02000000	      0.62083273	      0.22449251	      0.07730470	      0.16793408	      0.08776391	      0.02000000	      0.04977054	      0.02000000	      0.02000000	      0.02000000	      0.05376247	      0.02000000	      0.05936231	      0.06316705	      0.02999262	      0.02000000	      0.05165435	      0.07530778	      0.02000000	      0.02000000	      0.07053779	      0.02000000	      0.23051251	      0.02000000	      0.05459066	      0.16476562	      0.10663365	      0.12530033	      0.07204512	      0.02000000	      0.04405381	      0.03321271	      0.09956446	      0.09742289	      0.09634410	      0.05891583	      0.09841027	      0.02683569	      0.16158589	      0.14376909	      0.02000000	      0.02000000	      0.14582472	      0.02000000	      0.04530971	      0.02000000	      0.07047231	      0.29466483	      0.13842651	      0.08170721	      0.04284177	      0.09503665	      0.02000000	      0.04518511	      0.02000000	      0.04959163	      0.18922821	      0.04637526	      0.31214676	      0.03468923	      0.02000000	      0.02000000	      0.02000000	      0.02000000	      0.02000000	      0.06407178	      0.03528033	      0.04025738	      0.04175172	      0.02334798	      0.16699185	      0.38247060	      0.02000000	      0.05042140	      0.02000000	      0.05568966	      0.11470500	      0.01153434	      0.38899892	      0.02000000	      0.10561530	      0.28032791	      0.16307779	      0.03722906	      0.13200361	      0.19346392	      0.02000000	      0.04118329	      0.15365914	      0.09929582	      0.36048664	      0.08056851	      0.02000000	      0.03999726	      0.02000000	      0.12510330	      0.02000000	      0.12301279	      0.02000000	      0.12162139
      0.00005125	      3.77028231	      0.00000000	     -9.06686345	     -0.00000000	      3.70908125	      0.00000000	      0.04484839	      0.00000000	      1.01158335	     -0.00000000	     -0.22340009	     -0.00000000	     17.57953292	    -22.13638907	     -0.44010425	      1.70122488	     -1.68846774	     10.07946087	     12.74519217	    -35.58307265	      0.22244557	     -0.62104178	     -0.05414406	     62.38583957	      0.00000000	      0.00000000	     -0.00000000	     -0.00000000	     -4.95635766	      0.00000000	    -16.61136772	     -0.00000000	     -8.43483485	     -0.00000000	     50.95238787	     -0.00000000	      0.88928693	     -0.00000000	    -18.90207533	     -0.00000000	      0.00000000	      0.00000000	     -0.00000000	     -0.00000000	     -9.37291115	      0.00000000	     10.92884679	      0.00000000	     -3.91548356	     -0.00000000	    -10.14984650	      0.00000000	    -11.05969488	      0.00000000	    -13.98141467	      0.00000000	     29.92648919	      0.00000000	     30.75836834	      0.00000000	      0.00000000	      0.00000000	      0.00000000	      0.00000000	     -0.13766342	     -0.00000000	     -9.87893544	     -0.00000000	    -12.94888169	     -0.00000000	     30.67721746	      0.00000000	     30.30944903	     -0.00000000	     -0.00000000	     -0.00000000	     -0.00000000	     -0.00000000	      0.02000000	      0.02000000	      0.10418277	      0.02000000	      0.02000000	      0.14606685	      0.02000000	      0.02000000	      0.02000000	      0.09996871	      0.02000000	      0.05642608	      0.07465075	      0.02439473	      0.08506559	      0.02000000	      0.04899850	      0.02000000	      0.05522689	      0.02000000	      0.07678330	      0.02000000	      0.06378938	      0.03101879	      0.03053499	      0.02000000	      0.62138759	      0.22469051	      0.07753469	      0.16824591	      0.08797644	      0.02000000	      0.04958954	      0.02000000	      0.02067298	      0.02000000	      0.05373734	      0.02000000	      0.05933746	      0.06314859	      0.02996581	      0.02000000	      0.05198315	      0.07528331	      0.02000000	      0.02000000	      0.07125069	      0.02000000	      0.23304835	      0.02003576	      0.05455589	      0.16464411	      0.10658883	      0.12520756	      0.07203211	      0.02000000	      0.04404236	      0.03320340	      0.09953627	      0.09735882	      0.09630605	      0.05888650	      0.09837749	      0.02683234	      0.16145509	      0.14354081	      0.02000000	      0.02000000	      0.14582665	      0.02000000	      0.04529130	      0.02000000	      0.07045166	      0.29476794	      0.14008524	      0.08170611	      0.04297350	      0.09502939	      0.02000000	      0.04517459	      0.02000000	      0.04957949	      0.18905835	      0.04634937	      0.31178464	      0.03466724	      0.02000000	      0.02000000	      0.02000000	      0.02000000	      0.02000000	      0.06403813	      0.03550419	      0.04029780	      0.04173893	      0.02334125	      0.16694963	      0.38280717	      0.02000000	      0.05041042	      0.02000000	      0.05567745	      0.11462521	      0.01152755	      0.38902171	      0.02000000	      0.10559820	      0.28059253	      0.16294327	      0.03720501	      0.13190528	      0.19338359	      0.02000000	      0.04117276	      0.15435465	      0.09928678	      0.36274855	      0.08056871	      0.02000000	      0.03998799	      0.02000000	      0.12584500	      0.02000000	      0.12299835	      0.02000000	      0.12147216
      0.00010251	      3.77028231	      0.00000000	     -9.06686345	     -0.00000000	      3.70908125	      0.00000000	      0.04484839	      0.00000000	      1.01158335	     -0.00000000	     -0.22340009	      0.00000000	     17.57839784	    -22.15944303	     -0.44001520	      1.77067940	     -1.68794140	     10.44064844	     12.74336754	    -35.62629506	      0.22241372	     -0.62179615	     -0.05094636	     62.36457400	      0.00000000	      0.00000000	     -0.00000000	     -0.00000000	     -4.95635766	      0.00000000	    -16.61136772	     -0.00000000	     -8.43483485	     -0.00000000	     50.95238787	      0.00000000	      0.88928693	      0.00000000	    -18.90207533	     -0.00000000	      0.00000000	      0.00000000	     -0.00000000	      0.00000000	     -9.37291115	      0.00000000	     10.92884679	      0.00000000	     -3.91548356	     -0.00000000	    -10.14984650	      0.00000000	    -11.05969488	      0.00000000	    -13.98141467	      0.00000000	     29.92648919	      0.00000000	     30.75836834	      0.00000000	      0.00000000	      0.00000000	      0.00000000	      0.00000000	     -0.13766342	     -0.00000000	     -9.87893544	     -0.00000000	    -12.94888169	     -0.00000000	     30.67721746	     -0.00000000	     30.30944903	     -0.00000000	     -0.00000000	     -0.00000000	     -0.00000000	     -0.00000000	      0.02000000	      0.02000000	      0.10593404	      0.02000000	      0.02000000	      0.14783745	      0.02000000	      0.02000000	      0.02000000	      0.10130481	      0.02000000	      0.05640030	      0.07463027	      0.02439309	      0.08503809	      0.02000000	      0.04898812	      0.02000000	      0.05521445	      0.02000000	      0.07676867	      0.02000000	      0.06378345	      0.03101108	      0.03052762	      0.02000000	      0.62194015	      0.22488724	      0.07776264	      0.16855543	      0.08818715	      0.02000000	      0.04941595	      0.02000000	      0.02133823	      0.02000000	      0.05371243	      0.02000000	      0.05931279	      0.06313014	      0.02993932	      0.02000000	      0.05230878	      0.07525880	      0.02000000	      0.02000000	      0.07185517	      0.02000000	      0.23431465	      0.02007118	      0.05452149	      0.16452274	      0.10654411	      0.12511488	      0.07201924	      0.02000000	      0.04403099	      0.03319411	      0.09950809	      0.09729481	      0.09626800	      0.05885720	      0.09834471	      0.02682900	      0.16132445	      0.14339876	      0.02000000	      0.02000000	      0.14582848	      0.02000000	      0.04527290	      0.02000000	      0.07043102	      0.29487047	      0.14172630	      0.08170493	      0.04310399	      0.09502226	      0.02000000	      0.04516407	      0.02000000	      0.04956735	      0.18888872	      0.04632348	      0.31142317	      0.03464539	      0.02000000	      0.02000000	      0.02000000	      0.02000000	      0.02000000	      0.06400451	      0.03572586	      0.04033784	      0.04172614	      0.02333499	      0.16690746	      0.38314197	      0.02000000	      0.05039943	      0.02000000	      0.05566523	      0.11454550	      0.01152077	      0.38904439	      0.02000000	      0.10558229	      0.28085557	      0.16280891	      0.03718097	      0.13180705	      0.19330327	      0.02000000	      0.04116223	      0.15504433	      0.09927772	      0.36499210	      0.08056886	      0.02000000	      0.03997871	      0.02000000	      0.12633938	      0.02000000	      0.12298501	      0.02000000	      0.12132512
      0.00021153	      3.77028231	     -0.00000000	     -9.06686345	     -0.00000000	      3.70908125	      0.00000000	      0.04484839	     -0.00000000	      1.01158335	     -0.00000000	     -0.22340009	      0.00000000	     17.57597720	    -22.25263356	     -0.43981553	      1.88842194	     -1.68677023	     11.01902398	     12.73947297	    -35.83550543	      0.22234575	     -0.62544756	     -0.04416614	     61.95446927	      0.00000000	      0.00000000	     -0.00000000	      0.00000000	     -4.95635766	      0.00000000	    -16.61136772	     -0.00000000	     -8.43483485	     -0.00000000	     50.95238787	      0.00000000	      0.88928693	      0.00000000	    -18.90207533	     -0.00000000	      0.00000000	      0.00000000	      0.00000000	      0.00000000	     -9.37291115	      0.00000000	     10.92884679	      0.00000000	     -3.91548356	     -0.00000000	    -10.14984650	      0.00000000	    -11.05969488	     -0.00000000	    -13.98141467	      0.00000000	     29.92648919	      0.00000000	     30.75836834	      0.00000000	      0.00000000	      0.00000000	      0.00000000	      0.00000000	     -0.13766342	     -0.00000000	     -9.87893544	     -0.00000000	    -12.94888169	     -0.00000000	     30.67721746	     -0.00000000	     30.30944903	     -0.00000000	     -0.00000000	     -0.00000000	     -0.00000000	     -0.00000000	      0.02000000	      0.02000000	      0.10723498	      0.02000000	      0.02000000	      0.14943874	      0.02000000	      0.02000000	      0.02000000	      0.10318560	      0.02000000	      0.05634554	      0.07458748	      0.02438959	      0.08498008	      0.02000000	      0.04896618	      0.02000000	      0.05518798	      0.02000000	      0.07673979	      0.02000000	      0.06377143	      0.03099469	      0.03051198	      0.02000000	      0.62310791	      0.22530148	      0.07824086	      0.16920623	      0.08862937	      0.02000000	      0.04906894	      0.02000000	      0.02272814	      0.02000000	      0.05366016	      0.02000000	      0.05926086	      0.06309095	      0.02988403	      0.02000000	      0.05299101	      0.07520652	      0.02000000	      0.02000000	      0.07286284	      0.02000000	      0.23544102	      0.02014537	      0.05444957	      0.16426506	      0.10644927	      0.12491809	      0.07199228	      0.02000000	      0.04400707	      0.03317435	      0.09944817	      0.09715887	      0.09618711	      0.05879495	      0.09827501	      0.02682189	      0.16104709	      0.14325083	      0.02000000	      0.02000000	      0.14583212	      0.02000000	      0.04523381	      0.02000000	      0.07038712	      0.29508666	      0.14515970	      0.08170214	      0.04337751	      0.09500750	      0.02000000	      0.04514169	      0.02000000	      0.04954152	      0.18852865	      0.04626845	      0.31065644	      0.03459938	      0.02000000	      0.02000000	      0.02000000	      0.02000000	      0.02000000	      0.06393309	      0.03619016	      0.04042180	      0.04169898	      0.02332312	      0.16681790	      0.38384834	      0.02000000	      0.05037607	      0.02000000	      0.05563926	      0.11437623	      0.01150637	      0.38909227	      0.02000000	      0.10555190	      0.28140987	      0.16252366	      0.03712990	      0.13159848	      0.19313248	      0.02000000	      0.04113983	      0.15649223	      0.09925838	      0.36970457	      0.08056902	      0.02000000	      0.03995898	      0.02000000	      0.12692601	      0.02000000	      0.12295983	      0.02000000	      0.12101935
